<?xml version="1.0" encoding="UTF-8" standalone="no"?>
<svg
   id="Discord-Logo"
   viewBox="0 0 32.000001 32"
   version="1.1"
   width="32"
   height="32"
   xmlns="http://www.w3.org/2000/svg"
   xmlns:svg="http://www.w3.org/2000/svg">
  <defs
     id="defs4">
    <style
       id="style2">.cls-1{fill:#fff;}</style>
  </defs>
  <path
     id="Discord-Symbol-White"
     class="cls-1"
     d="m 20.223301,5.7418753 c -0.293206,0.489983 -0.556487,0.996869 -0.795818,1.515017 -2.27378,-0.321021 -4.589447,-0.321021 -6.869197,0 -0.23336,-0.518148 -0.502637,-1.025034 -0.795817,-1.515017 C 9.626312,6.0854403 7.5440051,6.6880583 5.5694241,7.5384893 1.6561293,12.99594 0.59702929,18.312572 1.1235933,23.555995 3.4153092,25.149863 5.9822931,26.366382 8.7168001,27.143603 9.333107,26.366382 9.87763,25.538474 10.34435,24.676783 9.458766,24.367023 8.6031041,23.978412 7.7833591,23.527854 c 0.215403,-0.14644 0.424834,-0.298499 0.628272,-0.444939 4.8048489,2.128918 10.3696229,2.128918 15.1804419,0 0.203437,0.157701 0.412869,0.30976 0.628271,0.444939 -0.819745,0.456177 -1.675407,0.839169 -2.566961,1.15457 0.46672,0.861692 1.011219,1.689599 1.627551,2.466821 2.734435,-0.777222 5.301395,-1.988121 7.5933,-3.581966 0.622135,-6.082614 -1.065165,-11.354202 -4.458007,-16.0231487 -1.968493,-0.85043 -4.050799,-1.453069 -6.186956,-1.790994 z M 11.014508,20.328857 c -1.47794,0 -2.7045849,-1.261585 -2.7045849,-2.821648 0,-1.560062 1.1787649,-2.827289 2.6986149,-2.827289 1.519849,0 2.728512,1.272847 2.704584,2.827289 -0.02393,1.554442 -1.190729,2.821648 -2.698614,2.821648 z m 9.968718,0 c -1.483958,0 -2.698615,-1.261585 -2.698615,-2.821648 0,-1.560062 1.178765,-2.827289 2.698615,-2.827289 1.519848,0 2.722542,1.272847 2.698589,2.827289 -0.02393,1.554442 -1.190728,2.821648 -2.698589,2.821648 z"
     style="fill:none;stroke:#5865f2;stroke-width:2;stroke-miterlimit:4;stroke-dasharray:none;stroke-opacity:1;stroke-linejoin:round;stroke-linecap:butt" />
</svg>
