<?xml version="1.0" encoding="UTF-8" standalone="no"?>
<svg
   width="32"
   height="32"
   version="1.1"
   id="svg4"
   xmlns="http://www.w3.org/2000/svg"
   xmlns:svg="http://www.w3.org/2000/svg">
  <defs
     id="defs8" />
  <path
     fill-rule="evenodd"
     clip-rule="evenodd"
     d="m 10.87804,30.969628 c 0.952318,0.194137 1.301147,-0.419556 1.301147,-0.935779 0,-0.452042 -0.03139,-2.001507 -0.03139,-3.615943 C 6.8152827,27.5803 5.7048326,24.093511 5.7048326,24.093511 4.8478636,21.833696 3.5781057,21.252895 3.5781057,21.252895 1.8327777,20.05841 3.7052445,20.05841 3.7052445,20.05841 c 1.9360274,0.12916 2.9519125,2.001504 2.9519125,2.001504 1.7135465,2.969774 4.47476,2.130661 5.585602,1.614042 0.15853,-1.259063 0.666661,-2.13066 1.20619,-2.614793 -4.25306,-0.452042 -8.7278195,-2.13066 -8.7278195,-9.620461 0,-2.130661 0.7612264,-3.8738574 1.9674192,-5.2295892 C 6.498239,5.7249802 5.8315796,3.723077 6.8792462,1.0437053 c 0,0 1.6185896,-0.51661877 5.2681618,2.0015069 1.562513,-0.4268213 3.173907,-0.6439477 4.792591,-0.6457751 1.618588,0 3.268567,0.2262185 4.792199,0.6457751 3.649965,-2.51812567 5.268552,-2.0015069 5.268552,-2.0015069 1.047668,2.6793717 0.380614,4.6812749 0.19031,5.1654075 1.237975,1.3557318 1.967811,3.0989282 1.967811,5.2295892 0,7.489801 -4.474759,9.13593 -8.759601,9.620461 0.698444,0.613286 1.301146,1.775286 1.301146,3.615546 0,2.614794 -0.03139,4.713365 -0.03139,5.358744 0,0.516619 0.349221,1.130303 1.301146,0.936571"
     fill="#ffffff"
     id="path2"
     style="fill:none;stroke:#ffffff;stroke-width:2;stroke-linecap:round;stroke-linejoin:round;stroke-miterlimit:4;stroke-dasharray:none;stroke-opacity:1" />
</svg>
